<svg xmlns="http://www.w3.org/2000/svg" version="1.1" xmlns:xlink="http://www.w3.org/1999/xlink" xmlns:svgjs="http://svgjs.com/svgjs" width="512" height="512" x="0" y="0" viewBox="0 0 64 64" style="enable-background:new 0 0 512 512" xml:space="preserve"><g><path d="M61 55h-2V23a4 4 0 0 0-4-4h-7a1 1 0 0 0 0 2h7a2 2 0 0 1 2 2v32h-2V24a1 1 0 0 0-1-1h-6a1 1 0 0 0 0 2h5v30H11V25h5a1 1 0 0 0 0-2h-6a1 1 0 0 0-1 1v31H7V23a2 2 0 0 1 2-2h7a1 1 0 0 0 0-2H9a4 4 0 0 0-4 4v32H3a1 1 0 0 0-1 1 6.006 6.006 0 0 0 6 6h48a6.006 6.006 0 0 0 6-6 1 1 0 0 0-1-1Zm-5 5H8a4.009 4.009 0 0 1-3.874-3h55.748A4.009 4.009 0 0 1 56 60Z" fill="#143aa2" data-original="#000000"></path><path d="M45.849 26.69a2.223 2.223 0 0 0 .14-3.206l-2.474-2.474a2.171 2.171 0 0 0-3.065 0l-1.24 1.24a.2.2 0 0 1-.228.008 14.428 14.428 0 0 0-2.826-1.172c-.072-.021-.156-.076-.156-.164v-1.557A2.223 2.223 0 0 0 33.833 17h-3.666A2.169 2.169 0 0 0 28 19.167v1.753a.194.194 0 0 1-.156.167 14.462 14.462 0 0 0-2.827 1.172.2.2 0 0 1-.225-.006l-1.1-1.1a2.224 2.224 0 0 0-3.206-.14l-2.476 2.472a2.171 2.171 0 0 0 0 3.065l1.24 1.24a.2.2 0 0 1 .008.228 14.428 14.428 0 0 0-1.172 2.826c-.021.072-.076.156-.164.156h-1.557A2.223 2.223 0 0 0 14 33.167v3.666A2.169 2.169 0 0 0 16.167 39h1.753a.194.194 0 0 1 .167.156 14.462 14.462 0 0 0 1.172 2.827.191.191 0 0 1-.006.225l-1.1 1.1a2.443 2.443 0 0 0-.756 1.6 2.075 2.075 0 0 0 .616 1.6l2.474 2.475a2.172 2.172 0 0 0 3.065 0l1.24-1.24a.192.192 0 0 1 .228-.008 14.428 14.428 0 0 0 2.826 1.172.194.194 0 0 1 .154.173v1.753A2.169 2.169 0 0 0 30.167 53h3.666A2.169 2.169 0 0 0 36 50.833V49.08a.194.194 0 0 1 .156-.167 14.462 14.462 0 0 0 2.827-1.172.191.191 0 0 1 .225.006l1.1 1.1a2.222 2.222 0 0 0 3.206.14l2.473-2.474a2.17 2.17 0 0 0 0-3.065l-1.24-1.24a.2.2 0 0 1-.008-.228 14.428 14.428 0 0 0 1.172-2.826c.021-.072.076-.156.164-.156h1.558A2.223 2.223 0 0 0 50 36.833v-3.666A2.169 2.169 0 0 0 47.833 31H46.08a.194.194 0 0 1-.167-.156 14.462 14.462 0 0 0-1.172-2.827.191.191 0 0 1 .006-.225ZM46.08 33h1.753a.167.167 0 0 1 .167.167v3.666c0 .162-.328.167-.365.167h-1.558a2.173 2.173 0 0 0-2.083 1.591 12.354 12.354 0 0 1-1.008 2.432 2.174 2.174 0 0 0 .349 2.6l1.24 1.239a.168.168 0 0 1 0 .237L42.1 47.575c-.116.114-.35-.113-.377-.14l-1.1-1.1a2.173 2.173 0 0 0-2.6-.348 12.331 12.331 0 0 1-2.433 1.009A2.175 2.175 0 0 0 34 49.08v1.753a.167.167 0 0 1-.167.167h-3.666a.167.167 0 0 1-.167-.167V49.08a2.175 2.175 0 0 0-1.591-2.086 12.354 12.354 0 0 1-2.432-1.008 2.244 2.244 0 0 0-1.082-.28 2.141 2.141 0 0 0-1.52.629l-1.239 1.24a.17.17 0 0 1-.238 0l-2.506-2.554a.487.487 0 0 1 .173-.3l1.1-1.1a2.172 2.172 0 0 0 .348-2.6 12.331 12.331 0 0 1-1.009-2.433A2.175 2.175 0 0 0 17.92 37h-1.753a.167.167 0 0 1-.167-.167v-3.666c0-.162.328-.167.365-.167h1.558a2.173 2.173 0 0 0 2.083-1.591 12.354 12.354 0 0 1 1.008-2.432 2.174 2.174 0 0 0-.349-2.6l-1.24-1.239a.17.17 0 0 1 0-.238l2.475-2.475c.118-.113.351.114.377.14l1.1 1.1a2.17 2.17 0 0 0 2.6.348 12.331 12.331 0 0 1 2.433-1.009A2.175 2.175 0 0 0 30 20.92v-1.753a.167.167 0 0 1 .167-.167h3.666c.162 0 .167.328.167.365v1.558a2.173 2.173 0 0 0 1.591 2.083 12.354 12.354 0 0 1 2.432 1.008 2.173 2.173 0 0 0 2.6-.349l1.239-1.24a.17.17 0 0 1 .238 0l2.475 2.475c.115.116-.113.351-.14.377l-1.1 1.1a2.172 2.172 0 0 0-.348 2.6 12.331 12.331 0 0 1 1.009 2.433A2.175 2.175 0 0 0 46.08 33Z" fill="#143aa2" data-original="#000000"></path><path d="M32 25a10 10 0 1 0 10 10 10.011 10.011 0 0 0-10-10Zm0 18a8 8 0 1 1 8-8 8.009 8.009 0 0 1-8 8ZM6 10a4 4 0 0 0 3.858-3H15v9a1 1 0 0 0 2 0V6a1 1 0 0 0-1-1H9.858A3.993 3.993 0 1 0 6 10Zm0-6a2 2 0 1 1-2 2 2 2 0 0 1 2-2ZM32 15a1 1 0 0 0 1-1V9.858a4 4 0 1 0-2 0V14a1 1 0 0 0 1 1Zm-2-9a2 2 0 1 1 2 2 2 2 0 0 1-2-2ZM58 2a4 4 0 0 0-3.858 3H48a1 1 0 0 0-1 1v10a1 1 0 0 0 2 0V7h5.142A3.993 3.993 0 1 0 58 2Zm0 6a2 2 0 1 1 2-2 2 2 0 0 1-2 2Z" fill="#143aa2" data-original="#000000"></path></g></svg>