<svg xmlns="http://www.w3.org/2000/svg" version="1.1" xmlns:xlink="http://www.w3.org/1999/xlink" xmlns:svgjs="http://svgjs.com/svgjs" width="512" height="512" x="0" y="0" viewBox="0 0 24 24" style="enable-background:new 0 0 512 512" xml:space="preserve"><g><path d="M7.492 3.281a4.695 4.695 0 0 0-3.093 4.414v2.44c-.545.029-.978.48-.978 1.032v.029a2 2 0 0 0-1.5 1.936v1.002a2 2 0 0 0 1.5 1.936v.031c0 .57.463 1.033 1.033 1.033H5.52c.57 0 1.033-.463 1.033-1.033v-4.934c0-.57-.463-1.033-1.033-1.033h-.121V7.695c0-1.467.854-2.734 2.093-3.331V4.5a.5.5 0 0 0 .5.5h8a.5.5 0 0 0 .5-.5v-.144a3.696 3.696 0 0 1 2.11 3.339v2.439h-.121c-.57 0-1.033.463-1.033 1.033v4.934c0 .57.463 1.033 1.033 1.033h.031c-.042.469-.213 1.229-.838 1.875-.652.674-1.775 1.201-3.674 1.239v-.253a.5.5 0 0 0-.5-.5h-3a.5.5 0 0 0-.5.5V21.5a.5.5 0 0 0 .5.5h3a.5.5 0 0 0 .5-.5v-.252c2.286-.043 3.613-.738 4.392-1.543.861-.89 1.076-1.942 1.12-2.571h.035c.57 0 1.033-.463 1.033-1.033v-.031a2 2 0 0 0 1.5-1.936v-1.002a2 2 0 0 0-1.5-1.936v-.029c0-.552-.434-1.003-.978-1.032v-2.44a4.697 4.697 0 0 0-3.11-4.421V2.5a.5.5 0 0 0-.5-.5h-8a.5.5 0 0 0-.5.5zM13 20.495V21h-2v-.505zm-.53-12.782a.5.5 0 0 0-.956 0l-.847 2.756H7.945a.5.5 0 0 0-.304.896l2.225 1.711-.853 2.777a.5.5 0 0 0 .783.543l2.196-1.687 2.196 1.687a.498.498 0 0 0 .782-.543l-.853-2.777 2.225-1.711a.499.499 0 0 0-.304-.896h-2.722l-.846-2.756zm-6.917 3.454v4.934a.033.033 0 0 1-.033.033H4.454a.033.033 0 0 1-.033-.033v-4.934c0-.019.015-.033.033-.033H5.52c.018 0 .033.014.033.033zm12.928 4.967h1.066a.033.033 0 0 0 .033-.033v-4.934a.033.033 0 0 0-.033-.033h-1.066a.032.032 0 0 0-.033.033v4.934c0 .018.014.033.033.033zm-15.06-3.867a.996.996 0 0 0-.5.865v1.002a1 1 0 0 0 .5.866zm17.159 0V15a1.003 1.003 0 0 0 .5-.866v-1.002a.996.996 0 0 0-.5-.865zm-8.588-2.705.477 1.554c.064.21.258.353.478.353h1.62l-1.335 1.025a.5.5 0 0 0-.173.543l.495 1.611-1.258-.966a.5.5 0 0 0-.609 0l-1.258.966.495-1.611a.5.5 0 0 0-.173-.543l-1.334-1.025h1.619c.22 0 .414-.143.478-.353zM8.492 3v1h7V3z" fill="#143aa2" data-original="#000000"></path></g></svg>